<?xml version="1.0" standalone="no"?>
<!DOCTYPE svg PUBLIC "-//W3C//DTD SVG 20010904//EN"
 "http://www.w3.org/TR/2001/REC-SVG-20010904/DTD/svg10.dtd">
<svg version="1.0" xmlns="http://www.w3.org/2000/svg"
 width="700.000000pt" height="700.000000pt" viewBox="0 0 700.000000 700.000000"
 preserveAspectRatio="xMidYMid meet">
<metadata>
Created by potrace 1.14, written by Peter Selinger 2001-2017
</metadata>
<g transform="translate(0.000000,700.000000) scale(0.100000,-0.100000)"
fill="#000000" stroke="none">
<path d="M3280 6994 c-19 -2 -84 -9 -145 -14 -639 -62 -1264 -315 -1795 -726
-149 -115 -481 -446 -595 -594 -410 -532 -653 -1132 -727 -1795 -17 -155 -17
-575 0 -730 75 -673 332 -1300 748 -1820 114 -143 339 -372 484 -494 537 -451
1163 -717 1885 -803 142 -17 586 -17 730 0 682 79 1268 318 1802 734 138 107
389 351 512 498 451 538 717 1162 803 1885 16 139 16 595 0 730 -77 629 -275
1158 -620 1649 -234 333 -577 668 -917 896 -460 308 -968 495 -1535 566 -117
15 -552 27 -630 18z m-1084 -1919 c341 -55 583 -237 667 -500 19 -59 22 -93
22 -220 0 -181 -19 -266 -95 -420 -61 -125 -140 -230 -311 -415 -74 -80 -153
-168 -175 -195 -47 -56 -141 -199 -172 -261 -31 -62 -70 -190 -91 -296 -21
-115 -38 -145 -86 -154 -87 -16 -144 16 -165 93 -20 71 1 260 45 389 65 197
144 327 351 584 189 235 247 329 284 462 85 303 -28 519 -312 595 -78 21 -290
23 -398 4 -162 -29 -324 -97 -484 -204 -113 -76 -153 -92 -202 -82 -48 9 -101
58 -114 106 -18 65 2 114 73 184 177 172 440 283 807 338 65 10 274 5 356 -8z
m1456 -16 c58 -29 90 -86 95 -167 5 -68 -82 -2099 -93 -2181 -11 -86 -96 -133
-171 -94 -76 40 -68 -32 -122 1177 -35 767 -46 1098 -39 1128 19 85 70 137
154 157 51 13 130 3 176 -20z m1613 21 c148 -22 282 -66 393 -132 92 -54 212
-180 255 -268 66 -135 88 -279 68 -434 -34 -254 -141 -443 -416 -736 -276
-293 -373 -461 -426 -734 -22 -110 -37 -142 -75 -156 -67 -26 -141 -2 -168 54
-32 68 -16 278 34 428 61 183 147 323 364 594 156 194 225 305 263 419 24 69
27 97 28 205 0 121 -1 127 -32 191 -65 131 -180 206 -362 236 -89 14 -121 15
-230 5 -216 -19 -403 -89 -605 -225 -115 -77 -162 -90 -222 -61 -58 29 -79 65
-79 134 0 76 32 123 142 206 178 134 415 229 672 269 104 16 300 18 396 5z
m-3252 -2833 c83 -35 136 -111 144 -208 15 -158 -72 -273 -216 -286 -171 -16
-291 86 -291 245 0 36 6 83 12 106 15 50 89 127 138 143 50 16 175 15 213 0z
m1630 0 c82 -35 136 -111 144 -208 15 -160 -71 -273 -218 -286 -116 -11 -213
38 -261 131 -29 55 -32 183 -5 237 25 50 74 98 122 120 49 22 170 25 218 6z
m1460 0 c82 -35 136 -111 144 -208 15 -160 -71 -273 -218 -286 -169 -16 -289
87 -289 245 0 36 6 83 12 106 15 50 89 127 138 143 50 16 175 15 213 0z"/>
</g>
</svg>
