<?xml version="1.0" encoding="utf-8"?>
<!-- Generator: Adobe Illustrator 25.4.1, SVG Export Plug-In . SVG Version: 6.00 Build 0)  -->
<svg version="1.1" id="Layer_1" xmlns="http://www.w3.org/2000/svg" xmlns:xlink="http://www.w3.org/1999/xlink" x="0px" y="0px"
	 viewBox="0 0 128 128" style="enable-background:new 0 0 128 128;" xml:space="preserve">
<style type="text/css">
	.st0{fill:#C1A890;}
	.st1{fill:#FFFFFF;}
</style>
<circle class="st0" cx="64" cy="64" r="61"/>
<path class="st1" d="M64,6c32,0,58,26,58,58s-26,58-58,58S6,96,6,64S32,6,64,6 M64,0C28.7,0,0,28.7,0,64s28.7,64,64,64
	s64-28.7,64-64S99.3,0,64,0L64,0z"/>
<g>
	<path class="st1" d="M38.7,78.3c-0.6,0-1.1-0.2-1.5-0.6c-0.3-0.4-0.5-1-0.5-1.7c0-1.7,0.2-3.4,0.6-4.9c0.4-1.5,1.1-3,2-4.6
		c1-1.6,2.2-3.3,3.7-5.1c1.2-1.5,2.3-2.8,2.9-3.9c0.8-1.1,1.3-2.3,1.6-3.3c0.3-1,0.5-2.2,0.5-3.2c0-2.1-0.8-3.7-2.3-4.9
		c-1.5-1.2-3.6-1.8-6.2-1.8c-2.3,0-4.3,0.3-6.2,1c-1.9,0.7-3.7,1.6-5.6,3c-0.8,0.5-1.4,0.8-2,0.8c-0.6,0-1.1-0.2-1.5-0.5
		c-0.4-0.3-0.7-0.8-0.8-1.3c-0.1-0.5-0.1-1.1,0.3-1.7c0.3-0.6,0.8-1.1,1.5-1.6c1.9-1.6,4.2-2.8,6.9-3.6c2.6-0.9,5.3-1.3,7.9-1.3
		c2.8,0,5.3,0.5,7.5,1.5c2.2,1,3.8,2.3,5,4.1c1.2,1.7,1.7,3.8,1.7,6.2c0,1.6-0.3,3-0.7,4.4c-0.4,1.4-1.1,2.9-2.1,4.3
		c-1,1.5-2.3,3-4.1,4.9c-1.6,1.6-2.8,3-3.7,4.4c-1,1.4-1.6,2.7-2.1,3.9c-0.4,1.3-0.8,2.6-1,4c-0.1,0.6-0.3,1-0.6,1.5
		C39.8,78.2,39.3,78.3,38.7,78.3z M38.7,92c-1.2,0-2.3-0.3-3-1.1c-0.8-0.8-1.1-1.7-1.1-2.9c0-1.2,0.3-2.2,1.1-2.9
		c0.8-0.8,1.7-1.1,3-1.1c1.2,0,2.2,0.3,2.9,1.1c0.7,0.8,1,1.7,1,2.9c0,1.2-0.3,2.2-1,2.9C40.9,91.6,39.9,92,38.7,92z"/>
	<path class="st1" d="M64.5,92c-1.2,0-2.3-0.3-2.9-1.1c-0.8-0.8-1.1-1.7-1.1-2.9c0-1.2,0.3-2.2,1.1-2.9c0.8-0.8,1.7-1.1,2.9-1.1
		c1.2,0,2.2,0.3,2.9,1.1c0.7,0.8,1,1.7,1,2.9c0,1.2-0.3,2.2-1,2.9C66.8,91.6,65.8,92,64.5,92z M64.5,78.4c-0.6,0-1-0.2-1.5-0.6
		c-0.3-0.4-0.6-1-0.6-1.7L61,42.9c-0.1-1.2,0.3-2.2,0.9-2.9c0.6-0.7,1.5-1,2.7-1c1.1,0,2,0.3,2.6,1c0.6,0.7,0.9,1.6,0.8,2.9
		l-1.5,33.1c0,0.8-0.2,1.4-0.5,1.7C65.6,78.2,65.1,78.4,64.5,78.4z"/>
	<path class="st1" d="M87.8,78.3c-0.6,0-1.1-0.2-1.5-0.6c-0.3-0.4-0.5-1-0.5-1.7c0-1.7,0.2-3.4,0.6-4.9c0.4-1.5,1.1-3,2-4.6
		c1-1.6,2.2-3.3,3.7-5.1c1.2-1.5,2.3-2.8,2.9-3.9c0.8-1.1,1.3-2.3,1.6-3.3c0.3-1,0.5-2.2,0.5-3.2c0-2.1-0.8-3.7-2.3-4.9
		s-3.6-1.8-6.2-1.8c-2.3,0-4.3,0.3-6.2,1c-1.9,0.7-3.7,1.6-5.6,3c-0.8,0.5-1.4,0.8-2,0.8c-0.6,0-1.1-0.2-1.5-0.5
		c-0.4-0.3-0.7-0.8-0.8-1.3c-0.1-0.5-0.1-1.1,0.3-1.7c0.3-0.6,0.8-1.1,1.5-1.6c1.9-1.6,4.2-2.8,6.9-3.6c2.6-0.9,5.3-1.3,7.9-1.3
		c2.8,0,5.3,0.5,7.5,1.5c2.2,1,3.8,2.3,5,4.1c1.2,1.7,1.7,3.8,1.7,6.2c0,1.6-0.3,3-0.7,4.4c-0.4,1.4-1.1,2.9-2.1,4.3
		c-1,1.5-2.3,3-4.1,4.9c-1.6,1.6-2.8,3-3.7,4.4c-1,1.4-1.6,2.7-2.1,3.9c-0.4,1.3-0.8,2.6-1,4c-0.1,0.6-0.3,1-0.6,1.5
		C88.8,78.2,88.4,78.3,87.8,78.3z M87.7,92c-1.2,0-2.3-0.3-3-1.1c-0.8-0.8-1.1-1.7-1.1-2.9c0-1.2,0.3-2.2,1.1-2.9
		c0.8-0.8,1.7-1.1,3-1.1c1.2,0,2.2,0.3,2.9,1.1c0.7,0.8,1,1.7,1,2.9c0,1.2-0.3,2.2-1,2.9C90,91.6,89,92,87.7,92z"/>
</g>
</svg>
